HIERARCHY
ROOT Hips
{
	OFFSET 0.000000 0.000000 0.000000
	CHANNELS 6 Xposition Yposition Zposition Zrotation Xrotation Yrotation
	JOINT RightUpLeg
	{
		OFFSET -10.795800 0.000000 0.000000
		CHANNELS 3 Zrotation Xrotation Yrotation
		JOINT RightLeg
		{
			OFFSET 0.000000 -39.557900 0.000000
			CHANNELS 3 Zrotation Xrotation Yrotation
			JOINT RightFoot
			{
				OFFSET 0.000000 -40.613400 0.000000
				CHANNELS 3 Zrotation Xrotation Yrotation
				JOINT RightToe
				{
					OFFSET 0.000000 -1.003500 12.392200
					CHANNELS 3 Zrotation Xrotation Yrotation
					JOINT RightToeEnd
					{
						OFFSET 0.000000 1.088300 5.767000
						CHANNELS 3 Zrotation Xrotation Yrotation
						End Site
						{
						    OFFSET 0.000000 0.927200 4.913300
						}
					}
				}
			}
		}
	}
	JOINT LeftUpLeg
	{
		OFFSET 10.795800 0.000000 0.000000
		CHANNELS 3 Zrotation Xrotation Yrotation
		JOINT LeftLeg
		{
			OFFSET 0.000000 -39.557900 0.000000
			CHANNELS 3 Zrotation Xrotation Yrotation
			JOINT LeftFoot
			{
				OFFSET 0.000000 -40.613400 0.000000
				CHANNELS 3 Zrotation Xrotation Yrotation
				JOINT LeftToe
				{
					OFFSET 0.000000 -1.003500 12.392200
					CHANNELS 3 Zrotation Xrotation Yrotation
					JOINT LeftToeEnd
					{
						OFFSET 0.000000 1.088300 5.767000
						CHANNELS 3 Zrotation Xrotation Yrotation
						End Site
						{
						    OFFSET 0.000000 0.927200 4.913300
						}
					}
				}
			}
		}
	}
	JOINT Spine
	{
		OFFSET 0.000000 15.108100 0.000000
		CHANNELS 3 Zrotation Xrotation Yrotation
		JOINT Spine1
		{
			OFFSET 0.000000 12.828000 0.000000
			CHANNELS 3 Zrotation Xrotation Yrotation
			JOINT Spine2
			{
				OFFSET 0.000000 11.155500 0.000000
				CHANNELS 3 Zrotation Xrotation Yrotation
				JOINT LeftShoulder
				{
					OFFSET 2.000000 11.155500 0.000000
					CHANNELS 3 Zrotation Xrotation Yrotation
					JOINT LeftArm
					{
						OFFSET 15.139800 0.000000 0.000000
						CHANNELS 3 Zrotation Xrotation Yrotation
						JOINT LeftForeArm
						{
							OFFSET 0.000000 -26.627300 0.000000
							CHANNELS 3 Zrotation Xrotation Yrotation
							JOINT LeftHand
							{
								OFFSET 0.000000 -24.932400 0.000000
								CHANNELS 3 Zrotation Xrotation Yrotation
								JOINT LeftFinger0
								{
									OFFSET 0.000000 -8.640100 0.000000
									CHANNELS 3 Zrotation Xrotation Yrotation
									End Site
									{
									    OFFSET 0.000000 -5.000000 0.000000
									}
								}
							}
						}
					}
				}
				JOINT RightShoulder
				{
					OFFSET -2.000000 11.155500 0.000000
					CHANNELS 3 Zrotation Xrotation Yrotation
					JOINT RightArm
					{
						OFFSET -15.139800 0.000000 0.000000
						CHANNELS 3 Zrotation Xrotation Yrotation
						JOINT RightForeArm
						{
							OFFSET 0.000000 -26.627300 0.000000
							CHANNELS 3 Zrotation Xrotation Yrotation
							JOINT RightHand
							{
								OFFSET 0.000000 -24.932400 0.000000
								CHANNELS 3 Zrotation Xrotation Yrotation
								JOINT RightFinger0
								{
									OFFSET 0.000000 -8.640100 0.000000
									CHANNELS 3 Zrotation Xrotation Yrotation
									End Site
									{
									    OFFSET 0.000000 -5.000000 0.000000
									}
								}
							}
						}
					}
				}
				JOINT Neck
				{
					OFFSET 0.000000 11.155500 0.000000
					CHANNELS 3 Zrotation Xrotation Yrotation
					JOINT Head
					{
						OFFSET 0.000000 10.940000 0.000000
						CHANNELS 3 Zrotation Xrotation Yrotation
						JOINT HeadTip
						{
							OFFSET 0.000000 10.000000 0.000000
							CHANNELS 3 Zrotation Xrotation Yrotation
							End Site
							{
							    OFFSET 0.000000 5.000000 0.000000
							}
						}
					}
				}
			}
		}
	}
}
MOTION
Frames:	14
Frame Time:	0.033332
96.765300 86.592100 -2.581000 -0.030773 -2.312148 -0.425276 1.353631 0.603577 -9.893382 -0.000000 7.439773 -0.000000 9.185006 3.921106 -18.088576 -0.000000 0.520454 0.000000 0.000000 0.000000 -0.000000 -2.405345 0.323900 2.198438 -0.000000 7.012038 0.000000 -6.003511 8.795445 19.139293 0.000000 -9.013149 -0.000000 0.000000 0.000000 -0.000000 -1.447755 2.418637 -0.587673 -0.000000 0.560187 -0.000000 0.000000 -0.000000 -0.000000 2.447402 0.000000 6.218583 69.057344 -9.278403 20.235049 0.000000 -19.343301 -0.000000 -9.292656 14.265717 -31.553633 0.000000 -0.000000 -0.000000 -4.529843 -0.000000 -8.175729 -64.113623 -7.477052 -21.478175 -0.000040 -14.649178 -0.000005 3.164137 7.164948 11.814833 -0.000000 0.000000 -0.000000 0.000000 -0.000000 -0.000000 3.676918 2.047256 -0.283853 -0.000000 0.000000 -0.000000 
96.768500 86.589600 -2.580100 -0.031182 -2.342036 -0.437585 1.347319 0.621615 -9.885996 0.000000 7.468859 -0.000000 9.263222 3.843807 -18.065243 0.000000 0.666116 -0.000000 0.000000 0.000000 -0.000000 -2.407564 0.349062 2.181129 -0.000000 7.019775 0.000000 -6.029541 8.785546 19.175868 0.000000 -9.064731 -0.000000 -0.000000 0.000000 0.000000 -1.465897 2.429822 -0.600536 -0.000000 0.584087 -0.000000 -0.000000 0.000000 -0.000000 2.447417 -0.000000 6.256240 69.128154 -9.276389 20.280810 -0.000000 -19.374662 -0.000000 -9.321501 14.268109 -31.554321 0.000000 -0.000000 -0.000000 -4.522048 -0.000000 -8.228115 -64.191323 -7.495251 -21.421669 -0.000040 -14.603834 -0.000005 3.128609 7.153127 11.833234 -0.000000 0.000000 -0.000000 -0.000000 0.000000 -0.000000 3.662548 2.078465 -0.204894 -0.000000 0.000000 -0.000000 
96.774700 86.589500 -2.581500 -0.030828 -2.356236 -0.449724 1.340581 0.624804 -9.894981 0.000000 7.483792 0.000000 9.216542 3.836953 -18.046880 -0.000000 0.722069 -0.000000 -0.000000 0.000000 -0.000000 -2.415768 0.367016 2.138940 -0.000000 7.015743 -0.000000 -6.017279 8.782200 19.221518 0.000000 -9.021284 0.000000 -0.000000 -0.000000 -0.000000 -1.468215 2.423921 -0.609671 0.000000 0.596291 -0.000000 0.000000 -0.000000 0.000000 2.454679 -0.000000 6.266182 69.153905 -9.261242 20.359148 0.000000 -19.360358 -0.000000 -9.389975 14.282341 -31.551575 0.000000 0.000000 -0.000000 -4.527016 -0.000000 -8.220498 -64.281099 -7.403670 -21.370825 -0.000040 -14.631744 -0.000005 3.190264 7.185701 11.692798 -0.000000 0.000000 -0.000000 0.000000 -0.000000 0.000000 3.621366 2.116932 -0.078812 -0.000000 0.000000 -0.000000 
96.775600 86.589600 -2.586200 -0.037755 -2.360676 -0.450372 1.346190 0.607877 -9.897603 0.000000 7.515949 0.000000 9.210891 3.846275 -18.062043 0.000000 0.645775 0.000000 -0.000000 0.000000 0.000000 -2.409455 0.369561 2.142286 -0.000000 7.013153 -0.000000 -6.017784 8.782642 19.224605 0.000000 -9.041677 -0.000000 0.000000 -0.000000 0.000000 -1.467006 2.429888 -0.614933 0.000000 0.593692 -0.000000 0.000000 0.000000 0.000000 2.474253 0.000000 6.273397 69.175870 -9.257662 20.315781 0.000000 -19.337829 -0.000000 -9.460154 14.331941 -31.629332 0.000000 -0.000000 -0.000000 -4.551252 0.000000 -8.236873 -64.320268 -7.382031 -21.527004 -0.000039 -14.552010 -0.000005 3.132646 7.163253 11.825520 -0.000000 0.000000 -0.000000 0.000000 0.000000 0.000000 3.584661 2.113806 0.051388 -0.000000 0.000000 -0.000000 
96.774700 86.590300 -2.595900 -0.042566 -2.343213 -0.447488 1.349407 0.571308 -9.904965 -0.000000 7.541302 -0.000000 9.237625 3.847440 -18.053591 -0.000000 0.673268 0.000000 -0.000000 -0.000000 0.000000 -2.404451 0.354388 2.096427 -0.000000 6.997150 -0.000000 -6.029078 8.792168 19.252851 0.000000 -9.021105 0.000000 0.000000 0.000000 -0.000000 -1.461303 2.410387 -0.624493 -0.000000 0.601741 -0.000000 0.000000 0.000000 -0.000000 2.465211 0.000000 6.271432 69.191911 -9.261163 20.388841 -0.000000 -19.273568 -0.000000 -9.429862 14.299410 -31.501985 0.000000 0.000000 -0.000000 -4.571691 -0.000000 -8.279233 -64.342013 -7.359501 -21.599268 -0.000040 -14.570654 -0.000005 3.106651 7.218911 11.777836 0.000000 0.000000 -0.000000 0.000000 0.000000 -0.000000 3.565039 2.089655 0.172035 0.000000 0.000000 -0.000000 
96.773400 86.589500 -2.605200 -0.033917 -2.336767 -0.433156 1.340622 0.558139 -9.912693 -0.000000 7.549098 -0.000000 9.249280 3.834818 -18.051222 0.000000 0.624689 -0.000000 0.000000 0.000000 -0.000000 -2.412616 0.357012 2.073777 0.000000 6.966242 -0.000000 -6.026291 8.799756 19.261118 0.000000 -8.996354 -0.000000 -0.000000 0.000000 -0.000000 -1.477381 2.401837 -0.650058 0.000000 0.614300 -0.000000 0.000000 0.000000 -0.000000 2.450691 -0.000000 6.265441 69.215058 -9.265402 20.451606 -0.000000 -19.220155 -0.000000 -9.356854 14.317327 -31.518295 0.000000 0.000000 -0.000000 -4.590913 0.000000 -8.299946 -64.346737 -7.350214 -21.621716 -0.000039 -14.542968 -0.000005 3.077343 7.159173 11.771027 -0.000000 -0.000000 -0.000000 0.000000 0.000000 -0.000000 3.576883 2.078265 0.260859 0.000000 0.000000 -0.000000 
96.767100 86.589900 -2.617500 -0.036474 -2.326369 -0.407994 1.349887 0.542087 -9.928735 0.000000 7.543442 -0.000000 9.209996 3.902789 -18.090098 0.000000 0.503962 -0.000000 0.000000 0.000000 -0.000000 -2.404832 0.336325 2.055051 0.000000 6.961797 -0.000000 -6.053182 8.812932 19.260375 0.000000 -9.063573 -0.000000 -0.000000 0.000000 -0.000000 -1.480966 2.405815 -0.679566 -0.000000 0.612303 -0.000000 0.000000 -0.000000 -0.000000 2.434529 -0.000000 6.246497 69.203873 -9.258936 20.535566 -0.000000 -19.208287 -0.000000 -9.300685 14.346003 -31.642451 -0.000000 -0.000000 0.000000 -4.627777 0.000000 -8.305900 -64.313711 -7.338701 -21.679973 -0.000039 -14.515291 -0.000005 3.175223 7.176909 11.802078 0.000000 0.000000 -0.000000 0.000000 -0.000000 -0.000000 3.588140 2.062828 0.289294 0.000000 0.000000 -0.000000 
96.758200 86.590200 -2.630600 -0.032146 -2.316415 -0.389652 1.354488 0.533405 -9.923123 0.000000 7.529118 -0.000000 9.201114 3.904580 -18.098534 -0.000000 0.527340 0.000000 -0.000000 -0.000000 -0.000000 -2.400228 0.303986 2.036455 -0.000000 6.987256 -0.000000 -6.062610 8.812140 19.244913 -0.000000 -9.034582 0.000000 -0.000000 -0.000000 -0.000000 -1.504116 2.400490 -0.678453 -0.000000 0.622823 -0.000000 0.000000 0.000000 -0.000000 2.440620 0.000000 6.217033 69.197194 -9.286480 20.537190 -0.000000 -19.159299 -0.000000 -9.292756 14.316642 -31.590424 -0.000000 0.000000 -0.000000 -4.600108 0.000000 -8.349321 -64.338065 -7.322823 -21.530808 -0.000040 -14.570137 -0.000005 3.200908 7.239444 11.638520 -0.000000 -0.000000 -0.000000 0.000000 0.000000 -0.000000 3.644803 2.063911 0.250147 0.000000 0.000000 -0.000000 
96.749300 86.590200 -2.641200 -0.033606 -2.308548 -0.392024 1.355629 0.513116 -9.910415 -0.000000 7.539476 -0.000000 9.201829 3.899315 -18.073818 -0.000000 0.550026 -0.000000 -0.000000 -0.000000 0.000000 -2.393167 0.283530 2.055674 -0.000000 6.996442 -0.000000 -6.041667 8.820339 19.228915 -0.000000 -9.035987 0.000000 0.000000 0.000000 -0.000000 -1.516164 2.387868 -0.675065 -0.000000 0.646800 -0.000000 -0.000000 0.000000 0.000000 2.428788 0.000000 6.216403 69.206140 -9.310952 20.519527 0.000000 -19.150220 -0.000000 -9.394365 14.289548 -31.427347 -0.000000 -0.000000 -0.000000 -4.614307 0.000000 -8.354762 -64.297110 -7.305797 -21.508818 -0.000040 -14.608350 -0.000005 3.183424 7.231223 11.557713 -0.000000 -0.000000 -0.000000 -0.000000 0.000000 0.000000 3.695047 2.090611 0.197542 -0.000000 0.000000 0.000000 
96.741300 86.590100 -2.647200 -0.038073 -2.317402 -0.398112 1.366914 0.516223 -9.899102 0.000000 7.539764 -0.000000 9.226465 3.861643 -18.083122 -0.000000 0.678731 -0.000000 -0.000000 0.000000 -0.000000 -2.386266 0.276132 2.059170 0.000000 7.019774 0.000000 -6.035577 8.813386 19.244090 -0.000000 -9.024291 0.000000 -0.000000 0.000000 0.000000 -1.520551 2.402654 -0.675958 -0.000000 0.647168 -0.000000 -0.000000 0.000000 -0.000000 2.425266 0.000000 6.212117 69.200394 -9.322472 20.524166 -0.000000 -19.147488 0.000000 -9.380596 14.287269 -31.534965 0.000000 0.000000 -0.000000 -4.635774 -0.000000 -8.334230 -64.262872 -7.343045 -21.653512 -0.000039 -14.508681 -0.000005 3.235695 7.195249 11.728616 -0.000000 0.000000 -0.000000 -0.000000 0.000000 -0.000000 3.712852 2.139080 0.125294 0.000000 0.000000 -0.000000 
96.736600 86.589800 -2.647700 -0.034114 -2.347016 -0.407911 1.367569 0.549323 -9.930955 -0.000000 7.533348 -0.000000 9.231574 3.867963 -18.062125 0.000000 0.626875 -0.000000 -0.000000 0.000000 -0.000000 -2.388839 0.301644 2.047504 -0.000000 7.027950 -0.000000 -6.034388 8.803480 19.265414 0.000000 -9.019795 -0.000000 -0.000000 -0.000000 -0.000000 -1.521330 2.428006 -0.675901 0.000000 0.659233 -0.000000 -0.000000 0.000000 0.000000 2.429558 0.000000 6.219188 69.188090 -9.343974 20.527419 0.000000 -19.123852 -0.000000 -9.271172 14.262973 -31.564581 0.000000 0.000000 -0.000000 -4.647956 -0.000000 -8.340280 -64.283160 -7.370347 -21.546935 -0.000039 -14.502159 -0.000005 3.307643 7.233157 11.695011 -0.000000 0.000000 -0.000000 -0.000000 0.000000 0.000000 3.710509 2.249520 0.155534 0.000000 0.000000 -0.000000 
96.731100 86.589700 -2.648100 -0.031878 -2.338997 -0.429201 1.367704 0.541301 -9.923965 -0.000000 7.528480 0.000000 9.174555 3.868706 -18.037263 0.000000 0.695534 -0.000000 -0.000000 0.000000 -0.000000 -2.385350 0.295711 2.061334 0.000000 7.030237 -0.000000 -6.035551 8.813795 19.260382 0.000000 -9.023583 -0.000000 -0.000000 0.000000 -0.000000 -1.518009 2.409890 -0.661354 0.000000 0.667699 -0.000000 0.000000 -0.000000 -0.000000 2.419313 0.000000 6.224359 69.216879 -9.340857 20.531407 -0.000000 -19.112157 -0.000000 -9.356646 14.275553 -31.401584 -0.000000 0.000000 -0.000000 -4.662507 0.000000 -8.337099 -64.297569 -7.371989 -21.553690 -0.000039 -14.502626 -0.000005 3.226055 7.231124 11.755909 0.000000 0.000000 0.000000 0.000000 -0.000000 -0.000000 3.688612 2.316632 0.214017 0.000000 0.000000 0.000000 
96.723500 86.589400 -2.647300 -0.031614 -2.339611 -0.446648 1.372298 0.546456 -9.910754 0.000000 7.518993 -0.000000 9.229964 3.873318 -18.033474 0.000000 0.656130 -0.000000 0.000000 0.000000 0.000000 -2.382675 0.306438 2.077987 0.000000 7.010592 -0.000000 -6.043074 8.816794 19.276070 -0.000000 -9.048250 -0.000000 -0.000000 0.000000 0.000000 -1.505309 2.413378 -0.641534 0.000000 0.673565 0.000000 0.000000 0.000000 -0.000000 2.421870 0.000000 6.230528 69.233215 -9.342842 20.584623 -0.000000 -19.099919 -0.000000 -9.293211 14.275217 -31.538477 -0.000000 0.000000 -0.000000 -4.681885 -0.000000 -8.346391 -64.331146 -7.376818 -21.674957 -0.000039 -14.483194 -0.000005 3.153432 7.211470 11.874154 0.000000 0.000000 -0.000000 0.000000 0.000000 -0.000000 3.650931 2.361211 0.320767 -0.000000 0.000000 -0.000000 
96.716600 86.591500 -2.646100 -0.025491 -2.338753 -0.433994 1.372391 0.558476 -9.914440 -0.000000 7.497890 -0.000000 9.218682 3.889651 -18.041178 0.000000 0.619048 -0.000000 0.000000 -0.000000 -0.000000 -2.383694 0.314973 2.096277 -0.000000 6.991345 -0.000000 -6.032784 8.831579 19.249255 -0.000000 -9.047053 -0.000000 -0.000000 -0.000000 0.000000 -1.500920 2.427304 -0.637612 0.000000 0.660506 0.000000 -0.000000 0.000000 -0.000000 2.451460 -0.000000 6.217488 69.240887 -9.333101 20.631203 -0.000000 -19.058984 -0.000000 -9.172347 14.234738 -31.653985 0.000000 -0.000000 -0.000000 -4.688813 0.000000 -8.366459 -64.378149 -7.350162 -21.738628 -0.000039 -14.491851 -0.000005 3.053072 7.211692 11.872334 0.000000 -0.000000 -0.000000 -0.000000 0.000000 -0.000000 3.611126 2.398355 0.408166 0.000000 0.000000 -0.000000 
